<svg width="26" height="20" viewBox="0 0 26 20" fill="none" xmlns="http://www.w3.org/2000/svg">
<path d="M25.8793 2.36717C24.9412 2.76883 23.9325 3.04029 22.8741 3.16259C23.9543 2.53743 24.7838 1.54801 25.1745 0.36927C24.1635 0.948099 23.0439 1.36795 21.8513 1.59426C20.8972 0.613218 19.5371 0 18.032 0C15.1417 0 12.7991 2.26041 12.7991 5.04887C12.7991 5.44474 12.845 5.83021 12.9346 6.19951C8.58526 5.98923 4.72933 3.97853 2.14827 0.924148C1.69779 1.66952 1.43975 2.53671 1.43975 3.46218C1.43975 5.21411 2.36323 6.75926 3.76779 7.66504C2.91 7.63916 2.10299 7.41194 1.39742 7.03349C1.39642 7.05477 1.39641 7.07575 1.39641 7.09687C1.39641 9.54362 3.20047 11.5838 5.59419 12.048C5.15546 12.1634 4.69325 12.2244 4.21594 12.2244C3.8784 12.2244 3.55113 12.1936 3.23105 12.1344C3.89742 14.1402 5.82966 15.6002 8.12 15.641C6.32755 16.9955 4.0715 17.8022 1.61956 17.8022C1.19746 17.8022 0.78057 17.7783 0.37085 17.7319C2.68769 19.1644 5.43801 20 8.39358 20C18.0188 20 23.2817 12.3067 23.2817 5.63404C23.2817 5.41524 23.2765 5.19793 23.267 4.9814C24.289 4.26896 25.1761 3.37993 25.8781 2.36721" fill="white"/>
</svg>
