<svg width="21" height="20" viewBox="0 0 21 20" fill="none" xmlns="http://www.w3.org/2000/svg">
<path d="M5.85012 0C2.65746 0 0.0611572 2.60401 0.0611572 5.80437V14.1971C0.0611572 17.3974 2.65746 20 5.85012 20H14.2728C17.4654 20 20.0618 17.3974 20.0618 14.1971V5.80437C20.0618 2.60401 17.4654 0 14.2728 0H5.85012V0ZM5.85012 1.71935H14.2728C16.545 1.71935 18.348 3.52664 18.348 5.80437V14.1971C18.348 16.4748 16.545 18.2807 14.2728 18.2807H5.85012C3.57785 18.2807 1.77635 16.4748 1.77635 14.1971V5.80437C1.77635 3.52664 3.57785 1.71935 5.85012 1.71935ZM15.4292 3.43867C14.7666 3.43867 14.2298 3.97676 14.2298 4.64091C14.2298 5.30507 14.7666 5.84315 15.4292 5.84315C16.0917 5.84315 16.6285 5.30507 16.6285 4.64091C16.6285 3.97676 16.0917 3.43867 15.4292 3.43867ZM10.0615 4.85061C7.23436 4.85061 4.92447 7.16609 4.92447 10C4.92447 12.8339 7.23436 15.1494 10.0615 15.1494C12.8886 15.1494 15.1999 12.8339 15.1999 10C15.1999 7.16609 12.8886 4.85061 10.0615 4.85061ZM10.0615 6.56996C11.9618 6.56996 13.4847 8.09513 13.4847 10C13.4847 11.9049 11.9618 13.43 10.0615 13.43C8.16117 13.43 6.63966 11.9049 6.63966 10C6.63966 8.09513 8.16117 6.56996 10.0615 6.56996Z" fill="white"/>
</svg>
